<svg width="22" height="21" viewBox="0 0 22 21" fill="none" xmlns="http://www.w3.org/2000/svg">
  <path fill-rule="evenodd" clip-rule="evenodd" d="M21.633 12.4811V20.3602H17.032V12.9987C17.032 11.1583 16.3994 9.89304 14.7315 9.89304C13.4663 9.89304 12.7186 10.7557 12.3735 11.5609C12.2585 11.8484 12.201 12.251 12.201 12.6536V20.3602H7.60001C7.60001 20.3602 7.65752 7.88013 7.60001 6.61487H12.201V8.57027C12.201 8.57027 12.201 8.62777 12.1435 8.62777H12.201V8.57027C12.8336 7.65008 13.8689 6.26979 16.3419 6.26979C19.3325 6.26979 21.633 8.28271 21.633 12.4811ZM2.88347 0.000976562C1.33063 0.000976562 0.29541 1.03619 0.29541 2.35897C0.29541 3.68174 1.27312 4.71697 2.82595 4.71697H2.88347C4.49381 4.71697 5.47152 3.68175 5.47152 2.35897C5.41401 1.03619 4.4363 0.000976562 2.88347 0.000976562ZM0.526056 20.3602H5.06954V6.61489H0.526056V20.3602Z" fill="#535353" />
</svg>