<svg width="52" height="52" viewBox="0 0 52 52" fill="none" xmlns="http://www.w3.org/2000/svg">
  <path fill-rule="evenodd" clip-rule="evenodd" d="M6.78516 11.1504C6.78516 6.43388 10.6087 2.61035 15.3252 2.61035H33.138C35.403 2.61035 37.5752 3.51011 39.1768 5.11168L42.7142 8.64911C44.3158 10.2507 45.2155 12.4229 45.2155 14.6879V41.0407C45.2155 45.7573 41.392 49.5808 36.6754 49.5808H15.3252C10.6087 49.5808 6.78516 45.7573 6.78516 41.0407V11.1504ZM40.9455 17.5555V41.0407C40.9455 43.399 39.0337 45.3108 36.6754 45.3108H15.3252C12.967 45.3108 11.0552 43.399 11.0552 41.0407V11.1504C11.0552 8.79216 12.967 6.88039 15.3252 6.88039H30.2704V11.1504C30.2704 14.6879 33.138 17.5555 36.6754 17.5555H40.9455ZM40.7086 13.2855C40.499 12.6825 40.1548 12.1284 39.6948 11.6685L36.1574 8.13106C35.6975 7.6711 35.1434 7.32692 34.5404 7.11725V11.1504C34.5404 12.3296 35.4963 13.2855 36.6754 13.2855H40.7086Z" fill="#141416" />
  <path d="M25.1828 19.8515C24.931 19.9556 24.6951 20.1101 24.4904 20.3148L18.0853 26.7198C17.2515 27.5536 17.2515 28.9054 18.0853 29.7392C18.9191 30.573 20.2709 30.573 21.1047 29.7392L23.865 26.9789V36.7696C23.865 37.9488 24.8209 38.9046 26 38.9046C27.1792 38.9046 28.1351 37.9488 28.1351 36.7696V26.9789L30.8954 29.7392C31.7292 30.573 33.081 30.573 33.9148 29.7392C34.7486 28.9054 34.7486 27.5536 33.9148 26.7198L27.5097 20.3148C26.8807 19.6857 25.9567 19.5313 25.1828 19.8515Z" fill="#141416" />
</svg>